<?xml version="1.0" encoding="utf-8"?>
<!-- Generator: Adobe Illustrator 19.2.1, SVG Export Plug-In . SVG Version: 6.00 Build 0)  -->
<!DOCTYPE svg PUBLIC "-//W3C//DTD SVG 1.1//EN" "http://www.w3.org/Graphics/SVG/1.1/DTD/svg11.dtd" [
	<!ENTITY st0 "fill:#333333;">
]>
<svg version="1.1" id="Layer_1" xmlns="http://www.w3.org/2000/svg" xmlns:xlink="http://www.w3.org/1999/xlink" x="0px" y="0px"
	 viewBox="0 0 500 500" style="enable-background:new 0 0 500 500;" xml:space="preserve">
<g>
	<g>
		<path style="&st0;" d="M448,222.2c-7-35.8-18.2-93.1-22.5-115.6C417,63.4,395.7,45,354.1,45H250.4H146.8
			c-41.6,0-62.9,18.5-71.4,61.7c-4.4,22.5-15.5,79.8-22.5,115.5C26.5,222.4,5,244.1,5,270.5v91.8c0,25.8,20.6,47.1,46.1,48.2v35.2
			c0,9,7.4,16.4,16.4,16.4h41c9,0,16.4-7.4,16.4-16.4v-35.1h251.1v35.1c0,9,7.4,16.4,16.4,16.4h41c9,0,16.4-7.4,16.4-16.4v-35.2
			c25.2-1.5,45.3-22.6,45.3-48.2v-91.8C495,244.3,473.9,222.9,448,222.2z M88,353.2c-20.4,0-36.9-16.5-36.9-36.9
			c0-20.4,16.5-36.9,36.9-36.9c20.4,0,36.9,16.5,36.9,36.9C124.9,336.7,108.4,353.2,88,353.2z M96.7,222.2
			c7-35.8,16.9-86.5,20.9-107.3c4.7-24.3,10.1-26.9,29.2-26.9h103.6h103.7c19.1,0,24.4,2.6,29.2,26.9c4,20.8,13.9,71.5,20.9,107.3
			H96.7z M412.8,353.2c-20.4,0-36.9-16.5-36.9-36.9c0-20.4,16.5-36.9,36.9-36.9c20.4,0,36.9,16.5,36.9,36.9
			C449.7,336.7,433.2,353.2,412.8,353.2z"/>
	</g>
</g>
</svg>
