<?xml version="1.0" encoding="utf-8"?>
<!-- Generator: Adobe Illustrator 19.2.1, SVG Export Plug-In . SVG Version: 6.00 Build 0)  -->
<!DOCTYPE svg PUBLIC "-//W3C//DTD SVG 1.1//EN" "http://www.w3.org/Graphics/SVG/1.1/DTD/svg11.dtd">
<svg version="1.1" id="Layer_1" xmlns="http://www.w3.org/2000/svg" xmlns:xlink="http://www.w3.org/1999/xlink" x="0px" y="0px"
	 viewBox="0 0 100 100" style="enable-background:new 0 0 100 100;" xml:space="preserve">
<g>
	<path d="M14.1,18.8H4.9V6.4h9.2v2H7.3v3h5.2v2H7.3v3.3h6.8V18.8z"/>
	<path d="M95,18.8h-9.2V6.4H95v2h-6.8v3h5.2v2h-5.2v3.3H95V18.8z"/>
	<path d="M49,6.4v10.3h6.8v2h-9.3V6.4H49z"/>
	<path d="M7.4,55.9H4.9V43.5h4.2c3.2,0,5,1.5,5,4c0,2.6-1.8,4.1-5,4.1H7.4V55.9z M9.1,49.6c1.8,0,2.7-0.7,2.7-2
		c0-1.3-0.8-2.1-2.7-2.1H7.4v4.1H9.1z"/>
	<path d="M46.6,55.9V43.5h2.5v5h4.3v-5h2.5v12.4h-2.5v-5.3h-4.3v5.3H46.6z"/>
	<path d="M91.6,43.5l5.2,12.4h-2.6l-1.2-3.1h-5.3l-1.2,3.1H84l5-12.4H91.6z M92.2,50.9l-1.9-4.6h-0.1l-1.8,4.6"/>
	<path d="M11.7,87.6v-7h2.6V93h-2.3l-4.6-7.7V93H4.8V80.6h2.7L11.7,87.6z"/>
	<path d="M50.1,93V82.7h-3.5v-2h9.3v2h-3.4V93H50.1z"/>
</g>
</svg>
